<svg xmlns="http://www.w3.org/2000/svg" viewBox="0 0 428.72 278"><defs><style>.cls-1{fill:#1d1d1b;}.cls-2{fill:#c91e20;}</style></defs><title>Asset 6</title><g id="Layer_2" data-name="Layer 2"><g id="Layer_1-2" data-name="Layer 1"><path class="cls-1" d="M25.39,233.13,0,278H10.4l5.22-9.81H44.06l5.4,9.81H61.17L35.45,233.13Zm-5.31,26.95,10-18.25,9.67,18.25Z"/><polygon class="cls-1" points="79.87 258.43 100.59 258.43 100.59 250.79 79.87 250.79 79.87 240.77 115.36 240.77 115.36 233.13 69.43 233.13 69.43 278 115.79 278 115.79 269.55 79.87 269.55 79.87 258.43"/><path class="cls-1" d="M165,261.06q5.35,0,7.75-2.08c1.6-1.39,2.4-3.59,2.4-6.62V241.83q0-4.59-2.4-6.64c-1.6-1.38-4.18-2.06-7.75-2.06H126.6V278h10.27V261.06h9.89L164.85,278h15l-20.72-16.94Zm-28.1-7.68V240.9h23.48a6.34,6.34,0,0,1,3.71.78,3.31,3.31,0,0,1,1,2.74v5.39a3.36,3.36,0,0,1-1,2.78,6.33,6.33,0,0,1-3.71.79Z"/><path class="cls-1" d="M231.05,233.13H198c-4.36,0-7.31.75-8.83,2.25s-2.3,4.28-2.3,8.36v23.64c0,4.11.77,6.9,2.3,8.39S193.67,278,198,278h33c4.36,0,7.31-.74,8.83-2.23s2.3-4.28,2.3-8.39V243.74c0-4.08-.77-6.86-2.3-8.36S235.41,233.13,231.05,233.13Zm.72,36.42H197.35v-28.4h34.42Z"/><path class="cls-1" d="M359.35,269.55H329.59V233.13H319.15v34.25c0,4.11.77,6.9,2.31,8.39s4.48,2.23,8.81,2.23h28.36q6.54,0,8.83-2.23c1.53-1.49,2.29-4.28,2.29-8.39V233.13h-10.4Z"/><path class="cls-1" d="M295.4,233.13H264.45q-6.54,0-8.83,2.25c-1.53,1.5-2.29,4.28-2.29,8.36v23.64c0,4.11.76,6.9,2.29,8.39s4.47,2.23,8.83,2.23H295.4q6.54,0,8.83-2.23c1.52-1.49,2.29-4.28,2.29-8.39V251.93H279.31v7.64h17.06v10h-32.6v-28.4h32.6v5l10.15-1.83v-1q0-5.77-2.33-8T295.4,233.13Z"/><polygon class="cls-1" points="392.81 269.55 392.81 258.43 413.53 258.43 413.53 250.79 392.81 250.79 392.81 240.77 428.3 240.77 428.3 233.13 382.37 233.13 382.37 278 428.72 278 428.72 269.55 392.81 269.55"/><polygon class="cls-2" points="134.17 193.42 136.87 196.61 140.06 193.9 208.34 135.79 210.77 133.72 209.42 130.84 182.52 73.39 214.36 36.67 246.2 73.39 219.31 130.84 217.95 133.72 220.38 135.79 288.67 193.9 291.85 196.61 294.56 193.42 331.83 149.45 334.19 146.66 331.74 143.94 283.93 91.19 279.72 86.53 277.06 92.22 269.98 107.36 268.8 109.87 270.67 111.93 302.44 146.93 289.13 162.77 247.46 127.31 263.62 92.81 263.63 92.82 266.14 87.44 273.4 71.89 274.55 69.43 272.77 67.39 214.36 0 155.95 67.39 154.18 69.43 155.32 71.89 162.58 87.43 165.09 92.82 165.11 92.81 181.26 127.31 139.6 162.77 126.28 146.92 158.05 111.93 159.92 109.87 158.74 107.35 151.67 92.22 149.01 86.53 144.79 91.18 96.99 143.94 94.53 146.65 96.9 149.44 134.17 193.42"/></g></g></svg>